<?xml version="1.0" standalone="no"?>
<!DOCTYPE svg PUBLIC "-//W3C//DTD SVG 20010904//EN"
 "http://www.w3.org/TR/2001/REC-SVG-20010904/DTD/svg10.dtd">
<svg version="1.0" xmlns="http://www.w3.org/2000/svg"
 width="800.000000pt" height="800.000000pt" viewBox="0 0 800.000000 800.000000"
 preserveAspectRatio="xMidYMid meet">
<metadata>
Created by potrace 1.11, written by Peter Selinger 2001-2013
</metadata>
<g transform="translate(0.000000,800.000000) scale(0.100000,-0.100000)"
fill="#000000" stroke="none">
<path d="M5758 7447 c-141 -95 -230 -168 -353 -291 -184 -184 -313 -366 -426
-601 -56 -114 -141 -351 -154 -424 -3 -19 -8 -38 -10 -41 -10 -16 -45 -260
-50 -348 -3 -52 -8 -322 -10 -600 -2 -279 -7 -820 -10 -1202 -6 -703 -8 -1037
-5 -1210 5 -358 -155 -680 -449 -900 -121 -90 -325 -177 -461 -195 -30 -4 -64
-9 -75 -11 -51 -11 -202 -5 -300 11 -412 67 -768 397 -874 810 -22 86 -24 105
-27 250 -4 164 7 238 51 371 148 445 587 761 1040 748 97 -2 120 -5 235 -24
66 -11 98 -16 210 -30 116 -15 161 -20 190 -25 14 -2 50 -7 80 -10 106 -13
115 -14 160 -20 l45 -7 0 558 c0 366 -3 559 -10 560 -20 1 -161 16 -180 20
-11 1 -47 6 -80 10 -33 3 -68 8 -77 9 -9 2 -43 6 -75 10 -69 7 -129 14 -163
20 -14 2 -52 7 -85 10 -33 3 -86 10 -117 14 -31 4 -104 7 -161 5 -673 -13
-1262 -300 -1692 -825 -149 -181 -279 -420 -361 -662 -47 -135 -71 -234 -90
-362 -3 -16 -6 -39 -9 -50 -29 -137 -23 -488 11 -665 3 -14 7 -36 9 -50 2 -14
9 -45 15 -70 6 -25 13 -53 15 -64 10 -42 36 -132 44 -151 5 -11 17 -42 26 -70
55 -159 178 -386 294 -540 130 -174 348 -390 476 -471 17 -10 32 -21 35 -24
30 -36 413 -240 450 -240 9 0 20 -4 25 -9 14 -12 224 -76 315 -95 148 -31 311
-48 460 -48 99 0 279 10 290 17 3 1 28 6 55 9 87 12 107 16 223 47 197 52 453
161 577 245 20 13 38 24 40 24 3 0 38 23 77 52 364 259 633 603 791 1014 51
133 103 324 121 449 2 17 7 48 10 70 18 118 23 513 31 2280 4 1062 3 1053 64
1234 74 221 214 407 413 547 42 30 81 54 86 54 33 0 17 34 -94 205 -17 28 -83
132 -146 233 -62 100 -120 193 -128 206 -8 13 -30 48 -48 77 -102 167 -130
211 -139 220 -6 6 -43 -13 -105 -54z"/>
</g>
</svg>
